<mxfile host="app.diagrams.net" modified="2024-06-02T03:22:40.297Z" agent="Mozilla/5.0 (Windows NT 10.0; Win64; x64) AppleWebKit/537.36 (KHTML, like Gecko) Chrome/125.0.0.0 Safari/537.36" etag="BmrC8VOVQcFtQ5Unr9qx" version="24.4.10" type="github">
  <diagram id="C5RBs43oDa-KdzZeNtuy" name="Page-1">
    <mxGraphModel dx="1707" dy="1641" grid="1" gridSize="10" guides="1" tooltips="1" connect="1" arrows="1" fold="1" page="1" pageScale="1" pageWidth="827" pageHeight="1169" math="0" shadow="0">
      <root>
        <mxCell id="WIyWlLk6GJQsqaUBKTNV-0" />
        <mxCell id="WIyWlLk6GJQsqaUBKTNV-1" parent="WIyWlLk6GJQsqaUBKTNV-0" />
        <mxCell id="sao1SYYCnSTZvyZAOk9Y-1" style="edgeStyle=orthogonalEdgeStyle;rounded=0;orthogonalLoop=1;jettySize=auto;html=1;entryX=0.5;entryY=1;entryDx=0;entryDy=0;endArrow=none;endFill=0;strokeWidth=3;exitX=0.25;exitY=0;exitDx=0;exitDy=0;startArrow=diamondThin;startFill=1;" parent="WIyWlLk6GJQsqaUBKTNV-1" target="QvGPnKHI2OlzJQcAXHP5-4" edge="1" source="kxeg5EFDUdXb59Oxzlhq-0">
          <mxGeometry relative="1" as="geometry">
            <mxPoint x="402.07692307692287" y="820" as="sourcePoint" />
          </mxGeometry>
        </mxCell>
        <mxCell id="950R4n9kMMYiP3tE7jDK-133" style="edgeStyle=orthogonalEdgeStyle;rounded=0;orthogonalLoop=1;jettySize=auto;html=1;strokeWidth=3;endArrow=none;endFill=0;startArrow=diamondThin;startFill=1;startSize=16;" parent="WIyWlLk6GJQsqaUBKTNV-1" source="zkfFHV4jXpPFQw0GAbJ--0" edge="1">
          <mxGeometry relative="1" as="geometry">
            <Array as="points">
              <mxPoint x="405" y="1090" />
              <mxPoint x="-5" y="1090" />
            </Array>
            <mxPoint x="-5" y="1117.5" as="targetPoint" />
          </mxGeometry>
        </mxCell>
        <mxCell id="950R4n9kMMYiP3tE7jDK-135" style="edgeStyle=orthogonalEdgeStyle;rounded=0;orthogonalLoop=1;jettySize=auto;html=1;entryX=1;entryY=0.75;entryDx=0;entryDy=0;endArrow=none;endFill=0;strokeWidth=3;startSize=16;" parent="WIyWlLk6GJQsqaUBKTNV-1" source="zkfFHV4jXpPFQw0GAbJ--0" target="950R4n9kMMYiP3tE7jDK-130" edge="1">
          <mxGeometry relative="1" as="geometry">
            <Array as="points">
              <mxPoint x="230" y="925" />
              <mxPoint x="230" y="925" />
            </Array>
          </mxGeometry>
        </mxCell>
        <mxCell id="zkfFHV4jXpPFQw0GAbJ--0" value="Psicologo" style="swimlane;fontStyle=2;align=center;verticalAlign=top;childLayout=stackLayout;horizontal=1;startSize=26;horizontalStack=0;resizeParent=1;resizeLast=0;collapsible=1;marginBottom=0;rounded=0;shadow=0;strokeWidth=1;" parent="WIyWlLk6GJQsqaUBKTNV-1" vertex="1">
          <mxGeometry x="320" y="820" width="170" height="170" as="geometry">
            <mxRectangle x="230" y="140" width="160" height="26" as="alternateBounds" />
          </mxGeometry>
        </mxCell>
        <mxCell id="zkfFHV4jXpPFQw0GAbJ--2" value="e-mail = &quot;amiltonpsicologo&quot;&#xa;" style="text;align=left;verticalAlign=top;spacingLeft=4;spacingRight=4;overflow=hidden;rotatable=0;points=[[0,0.5],[1,0.5]];portConstraint=eastwest;rounded=0;shadow=0;html=0;" parent="zkfFHV4jXpPFQw0GAbJ--0" vertex="1">
          <mxGeometry y="26" width="170" height="26" as="geometry" />
        </mxCell>
        <mxCell id="zkfFHV4jXpPFQw0GAbJ--3" value="senha = &quot;52987301&quot;" style="text;align=left;verticalAlign=top;spacingLeft=4;spacingRight=4;overflow=hidden;rotatable=0;points=[[0,0.5],[1,0.5]];portConstraint=eastwest;rounded=0;shadow=0;html=0;" parent="zkfFHV4jXpPFQw0GAbJ--0" vertex="1">
          <mxGeometry y="52" width="170" height="26" as="geometry" />
        </mxCell>
        <mxCell id="zkfFHV4jXpPFQw0GAbJ--5" value="CRP = &quot;874628&quot;" style="text;align=left;verticalAlign=top;spacingLeft=4;spacingRight=4;overflow=hidden;rotatable=0;points=[[0,0.5],[1,0.5]];portConstraint=eastwest;" parent="zkfFHV4jXpPFQw0GAbJ--0" vertex="1">
          <mxGeometry y="78" width="170" height="26" as="geometry" />
        </mxCell>
        <mxCell id="8egWWHLPjSnP0qdHddwJ-0" value="&amp;nbsp;idade =&quot;26&quot;" style="text;html=1;align=left;verticalAlign=middle;resizable=0;points=[];autosize=1;strokeColor=none;fillColor=none;" parent="zkfFHV4jXpPFQw0GAbJ--0" vertex="1">
          <mxGeometry y="104" width="170" height="30" as="geometry" />
        </mxCell>
        <mxCell id="zkfFHV4jXpPFQw0GAbJ--1" value="nomePsic = &quot;Amilton Santana&quot;" style="text;align=left;verticalAlign=top;spacingLeft=4;spacingRight=4;overflow=hidden;rotatable=0;points=[[0,0.5],[1,0.5]];portConstraint=eastwest;" parent="zkfFHV4jXpPFQw0GAbJ--0" vertex="1">
          <mxGeometry y="134" width="170" height="26" as="geometry" />
        </mxCell>
        <mxCell id="zkfFHV4jXpPFQw0GAbJ--17" value="Paciente" style="swimlane;fontStyle=0;align=center;verticalAlign=top;childLayout=stackLayout;horizontal=1;startSize=26;horizontalStack=0;resizeParent=1;resizeLast=0;collapsible=1;marginBottom=0;rounded=0;shadow=0;strokeWidth=1;" parent="WIyWlLk6GJQsqaUBKTNV-1" vertex="1">
          <mxGeometry x="-300" y="59" width="200" height="182" as="geometry">
            <mxRectangle x="550" y="140" width="160" height="26" as="alternateBounds" />
          </mxGeometry>
        </mxCell>
        <mxCell id="zkfFHV4jXpPFQw0GAbJ--18" value="cpfPac = &quot;555.632.481-99&quot;" style="text;align=left;verticalAlign=top;spacingLeft=4;spacingRight=4;overflow=hidden;rotatable=0;points=[[0,0.5],[1,0.5]];portConstraint=eastwest;" parent="zkfFHV4jXpPFQw0GAbJ--17" vertex="1">
          <mxGeometry y="26" width="200" height="26" as="geometry" />
        </mxCell>
        <mxCell id="zkfFHV4jXpPFQw0GAbJ--20" value="nome = &quot;josé de Alencar&quot;" style="text;align=left;verticalAlign=top;spacingLeft=4;spacingRight=4;overflow=hidden;rotatable=0;points=[[0,0.5],[1,0.5]];portConstraint=eastwest;rounded=0;shadow=0;html=0;" parent="zkfFHV4jXpPFQw0GAbJ--17" vertex="1">
          <mxGeometry y="52" width="200" height="26" as="geometry" />
        </mxCell>
        <mxCell id="zkfFHV4jXpPFQw0GAbJ--21" value="idade = &quot;50&quot;" style="text;align=left;verticalAlign=top;spacingLeft=4;spacingRight=4;overflow=hidden;rotatable=0;points=[[0,0.5],[1,0.5]];portConstraint=eastwest;rounded=0;shadow=0;html=0;" parent="zkfFHV4jXpPFQw0GAbJ--17" vertex="1">
          <mxGeometry y="78" width="200" height="26" as="geometry" />
        </mxCell>
        <mxCell id="zkfFHV4jXpPFQw0GAbJ--22" value="Email = &quot;josealencar@gmail.com&quot;" style="text;align=left;verticalAlign=top;spacingLeft=4;spacingRight=4;overflow=hidden;rotatable=0;points=[[0,0.5],[1,0.5]];portConstraint=eastwest;rounded=0;shadow=0;html=0;" parent="zkfFHV4jXpPFQw0GAbJ--17" vertex="1">
          <mxGeometry y="104" width="200" height="26" as="geometry" />
        </mxCell>
        <mxCell id="zkfFHV4jXpPFQw0GAbJ--24" value="senha = &quot;12186453&quot;" style="text;align=left;verticalAlign=top;spacingLeft=4;spacingRight=4;overflow=hidden;rotatable=0;points=[[0,0.5],[1,0.5]];portConstraint=eastwest;" parent="zkfFHV4jXpPFQw0GAbJ--17" vertex="1">
          <mxGeometry y="130" width="200" height="26" as="geometry" />
        </mxCell>
        <mxCell id="QvGPnKHI2OlzJQcAXHP5-4" value="Pagamento" style="swimlane;fontStyle=0;align=center;verticalAlign=top;childLayout=stackLayout;horizontal=1;startSize=26;horizontalStack=0;resizeParent=1;resizeLast=0;collapsible=1;marginBottom=0;rounded=0;shadow=0;strokeWidth=1;" parent="WIyWlLk6GJQsqaUBKTNV-1" vertex="1">
          <mxGeometry x="540" y="470" width="190" height="180" as="geometry">
            <mxRectangle x="340" y="380" width="170" height="26" as="alternateBounds" />
          </mxGeometry>
        </mxCell>
        <mxCell id="QvGPnKHI2OlzJQcAXHP5-5" value="idPagamento = &quot;1234455&quot;" style="text;align=left;verticalAlign=top;spacingLeft=4;spacingRight=4;overflow=hidden;rotatable=0;points=[[0,0.5],[1,0.5]];portConstraint=eastwest;" parent="QvGPnKHI2OlzJQcAXHP5-4" vertex="1">
          <mxGeometry y="26" width="190" height="26" as="geometry" />
        </mxCell>
        <mxCell id="n3AGkGt4mHbZdtDVJLRi-11" value="DataPagamento = &quot;12/01/2025&quot;" style="text;html=1;align=left;verticalAlign=middle;resizable=0;points=[];autosize=1;strokeColor=none;fillColor=none;" parent="QvGPnKHI2OlzJQcAXHP5-4" vertex="1">
          <mxGeometry y="52" width="190" height="30" as="geometry" />
        </mxCell>
        <mxCell id="n3AGkGt4mHbZdtDVJLRi-10" value="Valor = &quot;R$500.00&quot;" style="text;html=1;align=left;verticalAlign=middle;resizable=0;points=[];autosize=1;strokeColor=none;fillColor=none;" parent="QvGPnKHI2OlzJQcAXHP5-4" vertex="1">
          <mxGeometry y="82" width="190" height="30" as="geometry" />
        </mxCell>
        <mxCell id="n3AGkGt4mHbZdtDVJLRi-12" value="Paciente = &quot;José de Alencar&quot;" style="text;html=1;align=left;verticalAlign=middle;resizable=0;points=[];autosize=1;strokeColor=none;fillColor=none;" parent="QvGPnKHI2OlzJQcAXHP5-4" vertex="1">
          <mxGeometry y="112" width="190" height="30" as="geometry" />
        </mxCell>
        <mxCell id="n3AGkGt4mHbZdtDVJLRi-13" value="Psicologo = &quot;Amilton Santana&quot;" style="text;html=1;align=left;verticalAlign=middle;resizable=0;points=[];autosize=1;strokeColor=none;fillColor=none;" parent="QvGPnKHI2OlzJQcAXHP5-4" vertex="1">
          <mxGeometry y="142" width="190" height="30" as="geometry" />
        </mxCell>
        <mxCell id="QvGPnKHI2OlzJQcAXHP5-7" value="agendamento" style="swimlane;fontStyle=0;align=center;verticalAlign=top;childLayout=stackLayout;horizontal=1;startSize=26;horizontalStack=0;resizeParent=1;resizeLast=0;collapsible=1;marginBottom=0;rounded=0;shadow=0;strokeWidth=1;" parent="WIyWlLk6GJQsqaUBKTNV-1" vertex="1">
          <mxGeometry y="267.5" width="250" height="152.5" as="geometry">
            <mxRectangle x="340" y="380" width="170" height="26" as="alternateBounds" />
          </mxGeometry>
        </mxCell>
        <mxCell id="QvGPnKHI2OlzJQcAXHP5-8" value="Nome = &quot;José de Alencar&quot;&#xa;&#xa;&#xa;&#xa;&#xa;&#xa;&#xa;&#xa;&#xa;&#xa;&#xa;" style="text;align=left;verticalAlign=top;spacingLeft=4;spacingRight=4;overflow=hidden;rotatable=0;points=[[0,0.5],[1,0.5]];portConstraint=eastwest;" parent="QvGPnKHI2OlzJQcAXHP5-7" vertex="1">
          <mxGeometry y="26" width="250" height="26" as="geometry" />
        </mxCell>
        <mxCell id="n3AGkGt4mHbZdtDVJLRi-15" value="telefone= &quot;11 999229087&quot;" style="text;html=1;align=left;verticalAlign=middle;resizable=0;points=[];autosize=1;strokeColor=none;fillColor=none;" parent="QvGPnKHI2OlzJQcAXHP5-7" vertex="1">
          <mxGeometry y="52" width="250" height="30" as="geometry" />
        </mxCell>
        <mxCell id="n3AGkGt4mHbZdtDVJLRi-16" value="email= &quot;josedealencar@gmail.com&quot;" style="text;html=1;align=left;verticalAlign=middle;resizable=0;points=[];autosize=1;strokeColor=none;fillColor=none;" parent="QvGPnKHI2OlzJQcAXHP5-7" vertex="1">
          <mxGeometry y="82" width="250" height="30" as="geometry" />
        </mxCell>
        <mxCell id="n3AGkGt4mHbZdtDVJLRi-17" value="mensagem= &quot;desejo marcar uma consulta&quot;" style="text;html=1;align=left;verticalAlign=middle;resizable=0;points=[];autosize=1;strokeColor=none;fillColor=none;" parent="QvGPnKHI2OlzJQcAXHP5-7" vertex="1">
          <mxGeometry y="112" width="250" height="30" as="geometry" />
        </mxCell>
        <mxCell id="n3AGkGt4mHbZdtDVJLRi-33" value="contato_com_site" style="swimlane;fontStyle=0;align=center;verticalAlign=top;childLayout=stackLayout;horizontal=1;startSize=26;horizontalStack=0;resizeParent=1;resizeLast=0;collapsible=1;marginBottom=0;rounded=0;shadow=0;strokeWidth=1;" parent="WIyWlLk6GJQsqaUBKTNV-1" vertex="1">
          <mxGeometry x="240" y="-29" width="300" height="140" as="geometry">
            <mxRectangle x="340" y="380" width="170" height="26" as="alternateBounds" />
          </mxGeometry>
        </mxCell>
        <mxCell id="n3AGkGt4mHbZdtDVJLRi-34" value="Nome = &quot;José de Alencar&quot;" style="text;align=left;verticalAlign=top;spacingLeft=4;spacingRight=4;overflow=hidden;rotatable=0;points=[[0,0.5],[1,0.5]];portConstraint=eastwest;" parent="n3AGkGt4mHbZdtDVJLRi-33" vertex="1">
          <mxGeometry y="26" width="300" height="26" as="geometry" />
        </mxCell>
        <mxCell id="n3AGkGt4mHbZdtDVJLRi-35" value="Email&amp;nbsp;= &quot;josealencar@gmail.com&quot;" style="text;html=1;align=left;verticalAlign=middle;whiteSpace=wrap;rounded=0;" parent="n3AGkGt4mHbZdtDVJLRi-33" vertex="1">
          <mxGeometry y="52" width="300" height="30" as="geometry" />
        </mxCell>
        <mxCell id="n3AGkGt4mHbZdtDVJLRi-36" value="Mensagem = &quot;Ótimo site, com excelente psicologos&quot;" style="text;html=1;align=left;verticalAlign=middle;resizable=0;points=[];autosize=1;strokeColor=none;fillColor=none;" parent="n3AGkGt4mHbZdtDVJLRi-33" vertex="1">
          <mxGeometry y="82" width="300" height="30" as="geometry" />
        </mxCell>
        <mxCell id="pq3FlgAk9hNm56zek5nH-3" style="edgeStyle=orthogonalEdgeStyle;rounded=0;orthogonalLoop=1;jettySize=auto;html=1;endArrow=none;endFill=0;strokeWidth=3;startArrow=diamondThin;startFill=1;startSize=16;" parent="WIyWlLk6GJQsqaUBKTNV-1" source="zkfFHV4jXpPFQw0GAbJ--17" target="QvGPnKHI2OlzJQcAXHP5-7" edge="1">
          <mxGeometry relative="1" as="geometry">
            <Array as="points">
              <mxPoint x="-190" y="388" />
            </Array>
          </mxGeometry>
        </mxCell>
        <mxCell id="pq3FlgAk9hNm56zek5nH-11" style="edgeStyle=orthogonalEdgeStyle;rounded=0;orthogonalLoop=1;jettySize=auto;html=1;entryX=0;entryY=0.114;entryDx=0;entryDy=0;entryPerimeter=0;endArrow=none;endFill=0;strokeWidth=3;exitX=1;exitY=0.5;exitDx=0;exitDy=0;" parent="WIyWlLk6GJQsqaUBKTNV-1" source="zkfFHV4jXpPFQw0GAbJ--18" target="n3AGkGt4mHbZdtDVJLRi-33" edge="1">
          <mxGeometry relative="1" as="geometry">
            <mxPoint x="-90" y="40" as="sourcePoint" />
            <Array as="points">
              <mxPoint x="-100" y="110" />
              <mxPoint x="70" y="110" />
              <mxPoint x="70" y="-14" />
            </Array>
          </mxGeometry>
        </mxCell>
        <mxCell id="950R4n9kMMYiP3tE7jDK-1" value="&lt;font style=&quot;font-size: 16px;&quot;&gt;* .. 1&lt;/font&gt;" style="text;html=1;align=center;verticalAlign=middle;whiteSpace=wrap;rounded=0;strokeWidth=6;" parent="WIyWlLk6GJQsqaUBKTNV-1" vertex="1">
          <mxGeometry x="767" y="750" width="60" height="30" as="geometry" />
        </mxCell>
        <mxCell id="950R4n9kMMYiP3tE7jDK-10" value="&lt;font style=&quot;font-size: 16px;&quot;&gt;1 .. 1&lt;/font&gt;" style="text;html=1;align=center;verticalAlign=middle;whiteSpace=wrap;rounded=0;strokeWidth=6;" parent="WIyWlLk6GJQsqaUBKTNV-1" vertex="1">
          <mxGeometry x="-90" y="110" width="60" height="50" as="geometry" />
        </mxCell>
        <mxCell id="950R4n9kMMYiP3tE7jDK-11" value="&lt;font style=&quot;font-size: 16px;&quot;&gt;1 .. 1&lt;/font&gt;" style="text;html=1;align=center;verticalAlign=middle;whiteSpace=wrap;rounded=0;strokeWidth=6;" parent="WIyWlLk6GJQsqaUBKTNV-1" vertex="1">
          <mxGeometry x="160" width="60" height="50" as="geometry" />
        </mxCell>
        <mxCell id="950R4n9kMMYiP3tE7jDK-12" value="&lt;font style=&quot;font-size: 16px;&quot;&gt;1 .. *&lt;/font&gt;" style="text;html=1;align=center;verticalAlign=middle;whiteSpace=wrap;rounded=0;strokeWidth=6;" parent="WIyWlLk6GJQsqaUBKTNV-1" vertex="1">
          <mxGeometry x="-180" y="260" width="60" height="50" as="geometry" />
        </mxCell>
        <mxCell id="950R4n9kMMYiP3tE7jDK-13" value="&lt;font style=&quot;font-size: 16px;&quot;&gt;1 .. *&lt;/font&gt;" style="text;html=1;align=center;verticalAlign=middle;whiteSpace=wrap;rounded=0;strokeWidth=6;" parent="WIyWlLk6GJQsqaUBKTNV-1" vertex="1">
          <mxGeometry x="-70" y="340" width="60" height="50" as="geometry" />
        </mxCell>
        <mxCell id="950R4n9kMMYiP3tE7jDK-15" value="&lt;font style=&quot;font-size: 16px;&quot;&gt;* .. 1&lt;/font&gt;" style="text;html=1;align=center;verticalAlign=middle;whiteSpace=wrap;rounded=0;strokeWidth=6;" parent="WIyWlLk6GJQsqaUBKTNV-1" vertex="1">
          <mxGeometry x="650" y="650" width="60" height="30" as="geometry" />
        </mxCell>
        <mxCell id="950R4n9kMMYiP3tE7jDK-114" value="&lt;font style=&quot;font-size: 16px;&quot;&gt;* .. 1&lt;/font&gt;" style="text;html=1;align=center;verticalAlign=middle;whiteSpace=wrap;rounded=0;strokeWidth=6;" parent="WIyWlLk6GJQsqaUBKTNV-1" vertex="1">
          <mxGeometry x="-80" y="1080" width="60" height="30" as="geometry" />
        </mxCell>
        <mxCell id="950R4n9kMMYiP3tE7jDK-115" value="&lt;font style=&quot;font-size: 16px;&quot;&gt;* .. 1&lt;/font&gt;" style="text;html=1;align=center;verticalAlign=middle;whiteSpace=wrap;rounded=0;strokeWidth=6;" parent="WIyWlLk6GJQsqaUBKTNV-1" vertex="1">
          <mxGeometry x="320" y="1010" width="40" height="30" as="geometry" />
        </mxCell>
        <mxCell id="950R4n9kMMYiP3tE7jDK-125" value="&lt;font style=&quot;font-size: 16px;&quot;&gt;1 .. 1&lt;/font&gt;" style="text;html=1;align=center;verticalAlign=middle;whiteSpace=wrap;rounded=0;strokeWidth=6;" parent="WIyWlLk6GJQsqaUBKTNV-1" vertex="1">
          <mxGeometry x="210" y="950" width="60" height="50" as="geometry" />
        </mxCell>
        <mxCell id="950R4n9kMMYiP3tE7jDK-127" value="&lt;font style=&quot;font-size: 16px;&quot;&gt;1 .. 1&lt;/font&gt;" style="text;html=1;align=center;verticalAlign=middle;whiteSpace=wrap;rounded=0;strokeWidth=6;" parent="WIyWlLk6GJQsqaUBKTNV-1" vertex="1">
          <mxGeometry x="50" y="920" width="60" height="50" as="geometry" />
        </mxCell>
        <mxCell id="950R4n9kMMYiP3tE7jDK-128" value="contato_com_site" style="swimlane;fontStyle=0;align=center;verticalAlign=top;childLayout=stackLayout;horizontal=1;startSize=26;horizontalStack=0;resizeParent=1;resizeLast=0;collapsible=1;marginBottom=0;rounded=0;shadow=0;strokeWidth=1;" parent="WIyWlLk6GJQsqaUBKTNV-1" vertex="1">
          <mxGeometry x="-320" y="850" width="370" height="140" as="geometry">
            <mxRectangle x="340" y="380" width="170" height="26" as="alternateBounds" />
          </mxGeometry>
        </mxCell>
        <mxCell id="950R4n9kMMYiP3tE7jDK-129" value="Nome = &quot;José de Alencar&quot;" style="text;align=left;verticalAlign=top;spacingLeft=4;spacingRight=4;overflow=hidden;rotatable=0;points=[[0,0.5],[1,0.5]];portConstraint=eastwest;" parent="950R4n9kMMYiP3tE7jDK-128" vertex="1">
          <mxGeometry y="26" width="370" height="26" as="geometry" />
        </mxCell>
        <mxCell id="950R4n9kMMYiP3tE7jDK-130" value="Email&amp;nbsp;= &quot;josealencar@gmail.com&quot;" style="text;html=1;align=left;verticalAlign=middle;whiteSpace=wrap;rounded=0;" parent="950R4n9kMMYiP3tE7jDK-128" vertex="1">
          <mxGeometry y="52" width="370" height="30" as="geometry" />
        </mxCell>
        <mxCell id="950R4n9kMMYiP3tE7jDK-131" value="Mensagem = &quot;Ótimo site, ajuda na divulgação do nosso trabalho&quot;" style="text;html=1;align=left;verticalAlign=middle;resizable=0;points=[];autosize=1;strokeColor=none;fillColor=none;" parent="950R4n9kMMYiP3tE7jDK-128" vertex="1">
          <mxGeometry y="82" width="370" height="30" as="geometry" />
        </mxCell>
        <mxCell id="gnfi_5LoaYJmGnV6JSDh-0" value="agendamento" style="swimlane;fontStyle=0;align=center;verticalAlign=top;childLayout=stackLayout;horizontal=1;startSize=26;horizontalStack=0;resizeParent=1;resizeLast=0;collapsible=1;marginBottom=0;rounded=0;shadow=0;strokeWidth=1;" parent="WIyWlLk6GJQsqaUBKTNV-1" vertex="1">
          <mxGeometry x="-130" y="1117.5" width="250" height="152.5" as="geometry">
            <mxRectangle x="340" y="380" width="170" height="26" as="alternateBounds" />
          </mxGeometry>
        </mxCell>
        <mxCell id="gnfi_5LoaYJmGnV6JSDh-1" value="Nome = &quot;José de Alencar&quot;&#xa;&#xa;&#xa;&#xa;&#xa;&#xa;&#xa;&#xa;&#xa;&#xa;&#xa;" style="text;align=left;verticalAlign=top;spacingLeft=4;spacingRight=4;overflow=hidden;rotatable=0;points=[[0,0.5],[1,0.5]];portConstraint=eastwest;" parent="gnfi_5LoaYJmGnV6JSDh-0" vertex="1">
          <mxGeometry y="26" width="250" height="26" as="geometry" />
        </mxCell>
        <mxCell id="gnfi_5LoaYJmGnV6JSDh-2" value="telefone= &quot;11 999229087&quot;" style="text;html=1;align=left;verticalAlign=middle;resizable=0;points=[];autosize=1;strokeColor=none;fillColor=none;" parent="gnfi_5LoaYJmGnV6JSDh-0" vertex="1">
          <mxGeometry y="52" width="250" height="30" as="geometry" />
        </mxCell>
        <mxCell id="gnfi_5LoaYJmGnV6JSDh-3" value="email= &quot;josedealencar@gmail.com&quot;" style="text;html=1;align=left;verticalAlign=middle;resizable=0;points=[];autosize=1;strokeColor=none;fillColor=none;" parent="gnfi_5LoaYJmGnV6JSDh-0" vertex="1">
          <mxGeometry y="82" width="250" height="30" as="geometry" />
        </mxCell>
        <mxCell id="gnfi_5LoaYJmGnV6JSDh-4" value="mensagem= &quot;desejo marcar uma consulta&quot;" style="text;html=1;align=left;verticalAlign=middle;resizable=0;points=[];autosize=1;strokeColor=none;fillColor=none;" parent="gnfi_5LoaYJmGnV6JSDh-0" vertex="1">
          <mxGeometry y="112" width="250" height="30" as="geometry" />
        </mxCell>
        <mxCell id="kxeg5EFDUdXb59Oxzlhq-0" value="Painel_psicologo" style="swimlane;fontStyle=2;align=center;verticalAlign=top;childLayout=stackLayout;horizontal=1;startSize=26;horizontalStack=0;resizeParent=1;resizeLast=0;collapsible=1;marginBottom=0;rounded=0;shadow=0;strokeWidth=1;" parent="WIyWlLk6GJQsqaUBKTNV-1" vertex="1">
          <mxGeometry x="710" y="790" width="170" height="110" as="geometry">
            <mxRectangle x="230" y="140" width="160" height="26" as="alternateBounds" />
          </mxGeometry>
        </mxCell>
        <mxCell id="kxeg5EFDUdXb59Oxzlhq-3" value="Consulta= &quot;Feita&quot;" style="text;align=left;verticalAlign=top;spacingLeft=4;spacingRight=4;overflow=hidden;rotatable=0;points=[[0,0.5],[1,0.5]];portConstraint=eastwest;" parent="kxeg5EFDUdXb59Oxzlhq-0" vertex="1">
          <mxGeometry y="26" width="170" height="26" as="geometry" />
        </mxCell>
        <mxCell id="kxeg5EFDUdXb59Oxzlhq-4" value="Pagamento = &quot;Realizado&quot;" style="text;html=1;align=left;verticalAlign=middle;resizable=0;points=[];autosize=1;strokeColor=none;fillColor=none;" parent="kxeg5EFDUdXb59Oxzlhq-0" vertex="1">
          <mxGeometry y="52" width="170" height="30" as="geometry" />
        </mxCell>
        <mxCell id="kxeg5EFDUdXb59Oxzlhq-5" value="nomePsic = &quot;José de Alencar&quot;" style="text;align=left;verticalAlign=top;spacingLeft=4;spacingRight=4;overflow=hidden;rotatable=0;points=[[0,0.5],[1,0.5]];portConstraint=eastwest;" parent="kxeg5EFDUdXb59Oxzlhq-0" vertex="1">
          <mxGeometry y="82" width="170" height="26" as="geometry" />
        </mxCell>
        <mxCell id="kxeg5EFDUdXb59Oxzlhq-6" value="&lt;font style=&quot;font-size: 16px;&quot;&gt;1 .. 1&lt;/font&gt;" style="text;html=1;align=center;verticalAlign=middle;whiteSpace=wrap;rounded=0;strokeWidth=6;" parent="WIyWlLk6GJQsqaUBKTNV-1" vertex="1">
          <mxGeometry x="500" y="920" width="60" height="50" as="geometry" />
        </mxCell>
        <mxCell id="kxeg5EFDUdXb59Oxzlhq-9" style="edgeStyle=orthogonalEdgeStyle;rounded=0;orthogonalLoop=1;jettySize=auto;html=1;endArrow=none;endFill=0;strokeWidth=3;" parent="WIyWlLk6GJQsqaUBKTNV-1" source="zkfFHV4jXpPFQw0GAbJ--3" edge="1">
          <mxGeometry relative="1" as="geometry">
            <mxPoint x="709" y="890" as="targetPoint" />
            <Array as="points">
              <mxPoint x="709" y="887" />
            </Array>
          </mxGeometry>
        </mxCell>
        <mxCell id="kxeg5EFDUdXb59Oxzlhq-10" value="&lt;font style=&quot;font-size: 16px;&quot;&gt;1 .. 1&lt;/font&gt;" style="text;html=1;align=center;verticalAlign=middle;whiteSpace=wrap;rounded=0;strokeWidth=6;" parent="WIyWlLk6GJQsqaUBKTNV-1" vertex="1">
          <mxGeometry x="650" y="840" width="60" height="50" as="geometry" />
        </mxCell>
      </root>
    </mxGraphModel>
  </diagram>
</mxfile>
